<svg xmlns="http://www.w3.org/2000/svg" width="1024" height="1024" viewBox="0 0 1024 1024" version="1.1">
	<path d="M 0 512.001 L 0 1024.002 512.250 1023.751 L 1024.500 1023.500 1024.751 511.750 L 1025.002 0 512.501 0 L 0 0 0 512.001 M 0.496 512.500 C 0.496 794.100, 0.610 909.151, 0.750 768.168 C 0.890 627.186, 0.890 396.786, 0.750 256.168 C 0.610 115.551, 0.496 230.900, 0.496 512.500 M 305.032 237.065 C 295.785 239.486, 288.296 243.856, 281.246 250.946 C 274.611 257.618, 270.656 265.214, 268.578 275.274 C 265.870 288.387, 266.899 297.137, 272.721 310.480 C 275.133 316.008, 282.149 323.324, 358.571 400 C 447.800 489.526, 445.340 486.770, 441.406 492.791 C 440.433 494.281, 403.418 531.832, 359.151 576.239 C 314.884 620.645, 277.154 659.102, 275.308 661.700 C 265.791 675.085, 265.108 697.438, 273.696 714.386 C 277.505 721.904, 291.148 735.022, 299.016 738.732 C 316.290 746.878, 337.124 745.443, 352.713 735.033 C 356.066 732.794, 377.373 712.405, 402.077 687.797 C 446.429 643.616, 505.506 585.839, 516.741 575.657 C 520.174 572.546, 523.432 570, 523.982 570 C 524.896 570, 551.368 595.976, 654 697.583 C 675.557 718.925, 692.449 734.841, 695.260 736.460 C 716.048 748.434, 742.889 744.817, 760.260 727.700 C 771.709 716.419, 776.710 703.087, 775.715 686.500 C 775.055 675.497, 772.501 668.259, 766.308 659.847 C 763.796 656.435, 726.445 618.511, 683.306 575.571 C 640.167 532.632, 603.972 496.052, 602.873 494.281 C 601.594 492.220, 600.988 489.773, 601.188 487.476 C 601.474 484.190, 608.457 476.924, 684.593 400.695 C 760.414 324.780, 767.960 316.931, 770.827 311 C 780.500 290.991, 776.228 267.109, 760.108 251.074 C 740.347 231.416, 713.945 229.795, 688.259 246.663 C 684.833 248.913, 658.597 274.221, 623.500 309.133 C 530.250 401.890, 525.975 406, 522.740 406 C 520.476 406, 516.174 402.418, 500.221 387.250 C 471.490 359.933, 451.848 340.784, 402.002 291.494 C 363.807 253.725, 356.361 246.814, 349.465 242.737 C 336.415 235.020, 320.569 232.998, 305.032 237.065" stroke="none" fill="#000000" fill-rule="evenodd"/>
</svg>